<svg id="Compass_separate" data-name="Compass separate" xmlns="http://www.w3.org/2000/svg" viewBox="0 0 1091.51 1103.57"><defs><style>.cls-1,.cls-2,.cls-4{fill:none;}.cls-1,.cls-2,.cls-3,.cls-4,.cls-5,.cls-6,.cls-7,.cls-8,.cls-9{stroke:#000;stroke-miterlimit:10;}.cls-1,.cls-3,.cls-6,.cls-7,.cls-9{stroke-width:8px;}.cls-2,.cls-8{stroke-width:12px;}.cls-3{fill:#bcbcbc;}.cls-4,.cls-5{stroke-width:4px;}.cls-5{fill:#d8d8d8;}.cls-6{fill:#efefef;}.cls-7,.cls-8{fill:#4c4c4c;}</style></defs><title>Artboard 2</title><circle class="cls-1" cx="545.76" cy="557.18" r="484.09"/><circle class="cls-2" cx="545.76" cy="557.18" r="440.02"/><polyline class="cls-3" points="460.21 750.86 284 814.39 356.13 653.47 458.21 650.91 460.21 750.86"/><line class="cls-4" x1="433.75" y1="676.53" x2="284" y2="814.39"/><polygon class="cls-3" points="458.21 378.85 297.29 306.72 360.82 482.93 449.79 468.77 458.21 378.85"/><line class="cls-5" x1="435.15" y1="456.47" x2="297.29" y2="306.72"/><polyline class="cls-3" points="733.47 481.7 808.1 315.2 631.89 378.73 641.26 469.24 733.47 481.7"/><line class="cls-4" x1="658.35" y1="453.06" x2="808.1" y2="315.2"/><polyline class="cls-3" points="732.7 650.91 787 814.39 633.89 750.75 645.93 667.84 732.7 650.91"/><line class="cls-4" x1="657.76" y1="676.53" x2="787" y2="814.39"/><polygon class="cls-6" points="545.75 141.2 433.75 455.81 545.75 566.17 657.76 455.81 545.75 141.2"/><polygon class="cls-6" points="120.78 566.17 435.39 678.18 545.75 566.17 435.39 454.16 120.78 566.17"/><polygon class="cls-6" points="545.75 991.14 657.76 676.53 545.75 566.17 433.75 676.53 545.75 991.14"/><polygon class="cls-6" points="970.73 566.17 656.12 454.16 545.75 566.17 656.12 678.18 970.73 566.17"/><line class="cls-4" x1="120.78" y1="566.17" x2="970.73" y2="566.17"/><circle class="cls-7" cx="545.97" cy="122.15" r="59.85"/><path class="cls-8" d="M546,914.77s139.22-336-.21-693.47C545.76,221.3,396.34,578.74,546,914.77Z"/><circle id="Center" class="cls-9" cx="545.76" cy="565.95" r="16"/></svg>