<?xml version="1.0" standalone="no"?>
<!DOCTYPE svg PUBLIC "-//W3C//DTD SVG 20010904//EN"
 "http://www.w3.org/TR/2001/REC-SVG-20010904/DTD/svg10.dtd">
<svg version="1.0" xmlns="http://www.w3.org/2000/svg"
 width="418.000000pt" height="418.000000pt" viewBox="0 0 418.000000 418.000000"
 preserveAspectRatio="xMidYMid meet">
<metadata>
Created by potrace 1.14, written by Peter Selinger 2001-2017
</metadata>
<g transform="translate(0.000000,418.000000) scale(0.100000,-0.100000)"
fill="#000000" stroke="none">
<path d="M2188 4174 c-2 -1 -40 -4 -84 -5 -72 -2 -173 -14 -284 -33 -81 -15
-224 -58 -321 -96 -307 -122 -596 -330 -809 -584 -229 -275 -405 -631 -456
-926 -2 -14 -9 -46 -14 -71 -39 -192 -32 -608 14 -814 2 -11 9 -42 15 -70 71
-316 300 -734 527 -962 337 -337 777 -557 1204 -601 84 -9 378 -9 455 0 381
44 725 193 1051 456 90 72 182 169 311 327 76 94 173 251 173 282 0 5 -78 47
-172 93 -95 46 -185 89 -199 96 -26 13 -28 12 -64 -49 -115 -193 -256 -350
-441 -487 -220 -165 -478 -265 -734 -286 -36 -3 -77 -7 -92 -8 l-27 -3 40 111
c23 61 42 116 43 121 2 6 6 17 9 25 3 8 42 119 87 245 45 127 95 266 111 311
16 44 29 86 29 93 0 6 6 14 13 17 7 2 143 -50 301 -116 159 -66 290 -119 292
-117 2 2 -43 143 -100 313 l-103 310 231 83 c127 46 260 93 296 106 36 13 106
38 155 55 50 17 119 43 155 56 36 13 71 24 78 24 48 0 -43 37 -448 181 -416
148 -459 165 -454 182 3 11 23 56 44 101 54 116 230 513 230 519 0 2 -152 -51
-337 -118 -274 -99 -340 -120 -346 -108 -7 12 -138 372 -190 523 -9 25 -37
104 -62 175 -26 72 -53 149 -60 172 l-13 42 67 -5 c63 -4 82 -7 169 -20 110
-16 314 -87 422 -147 72 -41 182 -110 200 -128 8 -8 31 -26 52 -41 64 -48 194
-176 239 -236 24 -31 50 -63 57 -70 7 -8 35 -52 64 -98 28 -46 58 -84 66 -84
7 0 26 7 40 15 15 8 74 36 132 63 215 100 221 103 214 126 -27 86 -219 343
-364 487 -139 137 -342 279 -535 374 -118 59 -325 135 -400 148 -16 3 -57 11
-90 17 -86 17 -99 19 -210 25 -55 4 -117 7 -137 9 -21 2 -39 2 -40 0z m42
-440 c0 -2 -4 -12 -9 -22 -10 -18 -180 -497 -186 -522 -2 -8 -12 -39 -24 -68
-11 -29 -37 -101 -57 -160 -58 -170 -47 -154 -91 -135 -36 15 -376 167 -493
220 -96 44 -103 46 -95 26 3 -10 39 -110 80 -223 40 -113 92 -256 114 -318
l41 -113 -23 -9 c-12 -5 -60 -22 -107 -39 -47 -16 -202 -71 -345 -121 -143
-50 -269 -95 -280 -100 -11 -4 -39 -15 -62 -24 l-42 -15 4 82 c18 398 200 806
483 1085 273 269 591 425 912 449 41 3 76 6 77 7 5 4 103 5 103 0z m-1288
-1785 c249 -89 354 -126 515 -185 l41 -15 -43 -97 c-23 -53 -86 -193 -139
-311 -53 -118 -95 -216 -93 -217 1 -2 52 15 112 37 61 22 128 46 150 53 22 8
123 44 224 80 101 37 185 65 187 63 3 -3 190 -523 269 -747 18 -52 38 -108 44
-123 21 -53 17 -57 -51 -52 -244 20 -393 56 -577 141 -88 41 -253 147 -331
213 -30 25 -63 53 -73 61 -40 32 -194 220 -250 305 -127 193 -226 442 -252
635 -3 25 -8 56 -10 70 -8 56 -17 190 -12 190 3 0 133 -45 289 -101z"/>
</g>
</svg>
